<svg viewBox="-12.751 -382.824 1304.074 1308.748" xmlns="http://www.w3.org/2000/svg" xmlns:bx="https://boxy-svg.com">
    <path style="fill:#74bd6a;paint-order:fill" d="M22.903 753.893c16.891 9.358 50.675 28.076 126.91 45.571 76.234 17.496 194.92 33.77 265.558 22.727 70.636-11.042 93.224-49.402 108.938-86.655s24.555-73.4 38.15-102.035 31.945-49.757 47.617-61.928 28.668-15.391 44.984-12.389 35.952 12.227 89.179 48.242c53.226 36.016 140.042 98.823 201.035 132.197s96.161 37.316 126.795 37.134c30.633-.183 56.732-4.49 83.726-20.012 26.995-15.523 54.885-42.26 62.73-75.978s-4.358-74.417-25.457-97.048c-21.098-22.632-51.094-27.198-119.841-34.154-68.748-6.956-176.247-16.303-240.252-27.906-64.005-11.604-84.515-25.463-96.681-39.73-12.167-14.268-15.99-28.943-16.463-42.229s2.405-25.182 14.192-32.36c11.788-7.177 32.487-9.635 103.9-17.74 71.412-8.106 193.538-21.858 275.164-35.132s122.749-26.066 141.16-49.213c18.412-23.146 14.111-56.646 9.374-85.203-4.736-28.558-9.909-52.175-27.354-71.657-17.445-19.483-47.163-34.833-80.396-38.452s-69.982 4.493-145.051 43.479-188.458 108.846-252.513 143.34-78.777 33.623-93.047 28.063-28.088-15.808-33.856-36.871c-5.767-21.064-3.485-52.944 8.742-75.718s34.397-36.442 81.408-96.007c47.01-59.566 118.861-165.027 154.757-235.27 35.896-70.242 35.836-105.265 28.514-136.69-7.323-31.427-21.909-59.255-53.979-75.353-32.07-16.099-81.624-20.466-120.59-10.937s-67.346 32.955-89.02 71.444c-21.675 38.489-36.646 92.04-43.687 144.933-7.042 52.893-6.156 105.127-13.677 148.417s-23.45 77.635-35.227 104.722c-11.778 27.087-19.403 46.917-27.478 62.754-8.074 15.836-16.598 27.68-25.734 34.99s-18.886 10.084-25.43-1.192c-6.542-11.275-9.879-36.6-12.06-68.198-2.181-31.599-3.208-69.471-2.973-113.495s1.731-94.2-5.8-133.873-24.086-68.844-47.282-87.717c-23.197-18.874-53.035-27.45-83.613-25.089s-61.896 15.659-68.43 59.587c-6.532 43.928 11.721 118.487 29.12 173.9s33.946 91.682 43.983 124.906c10.037 33.223 13.564 63.402 20.893 91.623 7.328 28.221 18.456 54.485 23.83 79.187 5.375 24.703 4.995 47.843 1.9 71.291-3.097 23.448-8.908 47.202-18.122 67.008-9.213 19.806-21.827 35.663-55.497 60.376-33.669 24.714-88.392 58.284-129.286 80.999s-67.96 34.575-92.055 47.45-45.222 26.766-56.16 42.357C7.51 709.95 6.76 727.242 6.385 735.888s-.375 8.646 16.517 18.005" bx:d="M 6.011 744.534 U 107.361 800.686 U 463.42 849.508 U 531.182 734.43 U 557.705 625.988 U 612.753 562.622 U 651.739 552.962 U 710.649 580.635 U 971.097 769.056 U 1076.604 780.881 U 1154.899 767.96 U 1238.571 687.747 U 1201.965 565.652 U 1111.979 551.956 U 789.48 523.915 U 727.95 482.336 U 716.481 438.311 U 725.113 402.621 U 787.208 395.247 U 1153.588 353.989 U 1276.96 315.608 U 1264.057 215.11 U 1248.54 144.261 U 1159.386 98.213 U 1049.14 122.547 U 708.973 332.128 U 664.808 329.514 U 623.354 298.769 U 630.202 203.131 U 696.714 162.125 U 912.266 -154.26 U 912.088 -259.329 U 868.33 -342.815 U 719.668 -355.918 U 634.531 -285.64 U 589.62 -124.985 U 592.28 31.717 U 544.493 134.753 U 521.616 194.241 U 496.046 229.774 U 466.797 238.097 U 456.788 162.122 U 453.709 48.506 U 458.197 -102.021 U 408.528 -189.534 U 319.016 -215.262 U 225.06 -175.368 U 279.819 48.307 U 329.457 157.113 U 340.04 247.648 U 373.426 326.44 U 372.286 395.862 U 354.851 467.126 U 317.007 514.697 U 152.836 615.407 U 71.642 650.987 U 8.262 692.658 U 6.011 744.534 Z 1@ddccd4d7"/>
  </svg>
  