<?xml version="1.0" standalone="no"?>
<!DOCTYPE svg PUBLIC "-//W3C//DTD SVG 20010904//EN"
 "http://www.w3.org/TR/2001/REC-SVG-20010904/DTD/svg10.dtd">
<svg version="1.0" xmlns="http://www.w3.org/2000/svg"
 width="1024.000000pt" height="768.000000pt" viewBox="0 0 1024.000000 768.000000"
 preserveAspectRatio="xMidYMid meet">

<g transform="translate(0.000000,768.000000) scale(0.100000,-0.100000)"
fill="#2dbd3a" stroke="none">
<path d="M5455 7272 c-257 -78 -442 -266 -622 -632 -125 -255 -174 -430 -193
-690 -6 -80 -15 -203 -21 -274 -10 -132 -138 -913 -190 -1163 -84 -405 -192
-626 -317 -649 -23 -4 -72 0 -132 12 -118 23 -137 41 -189 174 -37 94 -38 97
-34 210 7 235 33 791 44 955 13 193 7 606 -11 675 -6 25 -29 83 -52 129 -32
67 -57 102 -122 166 -97 98 -157 134 -245 151 -70 14 -312 17 -446 6 -71 -6
-85 -11 -119 -39 -21 -17 -45 -29 -52 -26 -8 3 -17 -5 -23 -19 -5 -13 -25 -38
-44 -55 -20 -17 -33 -34 -30 -37 3 -3 -2 -8 -11 -12 -9 -3 -13 -10 -10 -15 3
-5 1 -9 -5 -9 -6 0 -7 -7 -4 -17 4 -11 3 -14 -5 -9 -14 8 -27 -37 -16 -55 5
-8 3 -9 -6 -4 -9 6 -11 -2 -6 -36 4 -28 3 -37 -3 -24 -7 17 -9 14 -15 -20 -15
-78 -17 -206 -6 -253 6 -26 14 -63 17 -82 5 -30 7 -32 14 -15 6 14 7 9 3 -15
-11 -75 27 -265 50 -243 3 4 4 -9 0 -28 -4 -26 -3 -31 5 -19 9 12 10 10 6 -11
-8 -33 12 -112 26 -103 6 3 7 -4 3 -22 -5 -18 -3 -25 4 -20 6 4 8 -2 4 -16 -4
-15 -2 -19 7 -13 10 6 11 2 6 -15 -5 -17 -4 -21 5 -15 9 5 11 4 6 -4 -10 -16
2 -64 13 -56 5 3 7 -5 3 -17 -3 -13 -1 -19 5 -15 7 5 9 -1 5 -15 -3 -14 -1
-19 6 -14 8 5 10 2 6 -8 -3 -9 -1 -16 5 -16 6 0 8 -7 4 -17 -4 -11 -3 -14 5
-9 8 5 10 2 6 -9 -8 -20 15 -77 28 -69 6 4 7 -2 3 -16 -5 -15 -4 -20 4 -16 7
5 9 1 5 -8 -3 -9 -1 -16 5 -16 6 0 8 -7 4 -17 -4 -10 -2 -14 4 -10 7 5 9 -1 5
-15 -4 -15 -2 -19 7 -13 10 6 11 2 6 -15 -5 -14 -3 -20 3 -16 6 4 8 -2 4 -16
-3 -13 -1 -19 5 -15 7 5 9 -1 5 -15 -3 -13 -1 -19 5 -15 7 5 9 -1 5 -15 -3
-13 -1 -19 5 -15 7 5 9 -1 5 -15 -4 -15 -2 -19 7 -13 10 6 11 2 6 -15 -5 -16
-4 -20 4 -15 8 5 10 -1 5 -21 -5 -18 -3 -25 4 -20 6 4 8 -2 4 -16 -3 -15 -2
-19 7 -14 9 6 10 0 5 -20 -5 -19 -4 -25 5 -20 9 6 10 0 5 -20 -4 -17 -3 -25 3
-21 6 4 8 -4 5 -20 -3 -16 -1 -24 5 -20 6 4 8 -3 5 -18 -5 -29 18 -116 30
-109 4 3 5 -10 2 -28 -4 -26 -3 -30 6 -18 8 12 9 6 5 -25 -4 -22 -3 -35 2 -28
5 7 9 -12 9 -45 1 -80 13 -140 25 -121 5 9 6 -1 3 -26 -4 -31 -3 -36 5 -25 9
11 10 4 5 -30 -4 -33 -3 -41 5 -30 8 11 9 5 5 -25 -5 -32 -3 -37 6 -25 10 13
11 12 5 -5 -16 -51 36 -294 57 -262 5 7 5 -4 2 -23 -3 -20 -2 -30 3 -24 4 7 9
-21 10 -65 1 -66 5 -79 26 -96 13 -12 22 -25 20 -31 -6 -17 24 -89 36 -87 5 2
8 -4 5 -12 -4 -8 -2 -15 4 -15 6 0 8 -10 4 -22 -3 -13 -1 -19 5 -15 7 5 9 -1
5 -15 -3 -13 -1 -19 5 -15 6 4 8 -2 6 -16 -6 -30 14 -80 28 -71 8 4 9 -1 4
-16 -5 -16 -4 -20 5 -15 9 5 10 1 5 -15 -5 -14 -3 -20 3 -16 6 4 8 -2 4 -16
-4 -16 -2 -19 8 -13 9 5 11 4 6 -4 -10 -16 3 -53 16 -45 6 4 8 -1 3 -16 -5
-16 -4 -20 4 -15 8 5 10 -1 5 -21 -5 -18 -3 -25 4 -20 6 4 8 -2 4 -16 -3 -11
-1 -19 4 -16 11 7 17 -128 9 -200 -4 -33 -14 -59 -26 -71 -11 -10 -21 -28 -22
-39 0 -11 -4 -19 -8 -16 -14 8 -40 -9 -54 -37 -10 -18 -20 -26 -30 -23 -9 4
-18 -3 -24 -19 -5 -13 -21 -27 -35 -31 -13 -3 -27 -14 -31 -25 -3 -10 -15 -27
-27 -37 -12 -11 -18 -13 -14 -7 5 9 2 11 -8 7 -8 -3 -18 -14 -21 -25 -4 -10
-13 -19 -21 -19 -21 0 -65 -31 -58 -41 3 -5 -2 -6 -10 -3 -11 4 -16 0 -16 -10
0 -9 -7 -16 -15 -16 -8 0 -15 -4 -15 -10 0 -5 -7 -7 -15 -4 -9 4 -15 0 -15 -8
0 -16 -42 -40 -74 -43 -11 -1 -29 -14 -41 -29 -12 -15 -30 -28 -39 -30 -10 -1
-21 -7 -24 -12 -12 -17 -61 -44 -79 -44 -10 0 -31 -14 -46 -30 -16 -17 -39
-30 -51 -30 -13 0 -40 -16 -60 -35 -21 -19 -42 -33 -47 -30 -5 4 -9 2 -9 -3 0
-13 -74 -52 -99 -52 -11 0 -21 -6 -21 -13 0 -7 -12 -20 -27 -29 -29 -17 -33
-18 -59 -18 -8 0 -12 -4 -9 -10 3 -6 -1 -7 -9 -4 -10 4 -16 1 -16 -7 0 -8 -36
-33 -80 -57 -44 -24 -80 -40 -80 -37 0 3 -6 1 -12 -5 -20 -16 -222 -115 -230
-112 -5 1 -8 -2 -8 -6 0 -11 -74 -52 -94 -52 -10 0 -14 -4 -11 -10 3 -6 -1 -7
-9 -4 -10 4 -16 1 -16 -7 0 -13 -121 -91 -148 -95 -7 -1 -24 -13 -38 -27 -13
-13 -38 -27 -55 -31 -17 -3 -28 -10 -25 -15 3 -5 0 -8 -7 -7 -6 0 -13 -3 -14
-7 -3 -15 -37 -35 -49 -30 -7 2 -18 -4 -26 -15 -7 -11 -22 -22 -33 -24 -11 -2
-19 -9 -18 -15 1 -6 -3 -10 -10 -10 -37 1 -49 -4 -43 -19 3 -8 2 -13 -3 -10
-5 3 -11 -1 -15 -9 -3 -8 -16 -15 -28 -15 -13 0 -31 -8 -40 -19 -8 -10 -22
-21 -29 -23 -7 -2 -14 -17 -16 -34 -1 -16 -5 -48 -9 -71 -17 -111 90 -201 436
-367 225 -107 503 -198 740 -240 315 -56 935 -98 1135 -77 288 31 385 51 486
102 249 124 380 308 404 564 9 101 31 177 74 264 21 42 64 135 94 206 136 317
200 407 334 472 50 24 72 28 165 31 172 6 294 -33 697 -219 468 -217 562 -270
861 -486 69 -49 165 -115 213 -147 49 -31 146 -100 215 -153 150 -114 227
-152 388 -195 110 -29 132 -31 289 -32 191 -1 247 11 359 79 246 148 372 359
336 565 -41 237 -230 476 -497 630 -115 66 -182 83 -308 82 -60 0 -150 -5
-198 -11 -113 -13 -278 2 -652 58 -38 6 -124 18 -190 26 -333 43 -653 118
-783 184 -71 36 -148 94 -193 146 -145 165 -126 316 52 410 134 70 122 69 914
70 l710 1 180 27 c99 15 194 29 210 31 406 62 653 150 809 289 233 207 297
536 176 910 -41 126 -98 225 -182 313 -125 131 -291 194 -512 194 -139 0 -242
-15 -351 -51 -87 -29 -277 -119 -333 -157 -65 -46 -506 -335 -597 -392 -86
-54 -270 -183 -285 -200 -3 -3 -25 -20 -50 -38 -25 -18 -69 -51 -99 -73 -45
-33 -155 -91 -331 -174 -19 -10 -105 -46 -192 -81 -363 -148 -550 -157 -637
-31 -43 64 -55 112 -54 217 1 156 40 278 121 380 20 25 93 106 162 180 70 74
163 180 207 235 91 114 195 232 402 461 256 282 391 459 515 672 206 354 270
550 283 859 12 301 -36 382 -337 568 -130 80 -248 137 -366 176 -87 28 -114
33 -229 35 -104 3 -142 0 -190 -14z m-2868 -1449 c-2 -16 -4 -5 -4 22 0 28 2
40 4 28 2 -13 2 -35 0 -50z"/>
</g>
</svg>
