<svg xmlns="http://www.w3.org/2000/svg" xmlns:xlink="http://www.w3.org/1999/xlink" version="1.1"
    x="0px" y="0px" viewBox="0 0 100 66.5625" enable-background="new 0 0 100 53.25"
    xml:space="preserve">
  <!-- Source: https://thenounproject.com/icon/turtle-846637/ -->
  <style type="text/css">
    .st0{fill:#B2E1B5;}
  </style>
  <path class="st0" d="M44.502,8.949c4.905,0,9.347,2.656,14.969,6.019c2.844,1.7,5.947,3.556,9.453,5.247c-4.538,4.848-14.976,12.775-24.8,14.3c-2.466,0.382-5.092,0.575-7.807,0.575c-7.248,0-13.49-1.341-17.392-2.618c1.692-2.415,3.026-5.058,4.335-7.651c3.937-7.798,7.336-14.532,19.794-15.798c0.474-0.049,0.96-0.074,1.446-0.074H44.502 M44.502,2.949c-0.001,0-0.001,0-0.002,0c-0.674,0-1.362,0.033-2.062,0.105C18.693,5.466,20.182,25.311,10.527,32.795c-3.438,2.664,10.356,8.295,25.79,8.295c2.884,0,5.827-0.197,8.724-0.646c16.979-2.636,36.475-21.622,31.068-23.661C63.108,11.876,55.415,2.949,44.502,2.949L44.502,2.949z"/>
  <path class="st0" d="M9.089,37.854c-0.592,0.199-1.308,0.445-2.205,0.732c-3.65,1.17-5.986,3.217-5.99,4.08c-0.008,1.776,10.735,1.618,16.461,0.4c1.31-0.277,2.056-0.529,2.407-0.771c-0.701-0.178-1.394-0.361-2.069-0.56C13.134,40.408,10.565,39.029,9.089,37.854z"/>
  <path class="st0" d="M67.293,33.766c-2.369,1.723-5.67,3.887-9.52,5.781c0.004,0.125,0.388,0.51,0.901,2.111c0.517,1.602,0.709,4.247,0.697,6.376c-0.01,1.923,1.187,1.733,2.336,2.321c1.288,0.658,5.207,0.688,9.421,0.464c1.479-0.08,1.993-0.063,1.771-2.507C72.08,39.268,67.293,33.766,67.293,33.766z"/>
  <path class="st0" d="M21.71,42.744c-0.032,0.072-0.065,0.145-0.092,0.225c-0.736,2.193-1.252,6.973,1.456,7.658c2.871,0.727,6.245,0.65,9.602,0.58c1.003-0.021,1.96-0.795,2.208-1.681c0.562-2.015,0.255-3.899-0.903-5.271C29.828,44.111,25.63,43.59,21.71,42.744z"/>
  <path class="st0" d="M96.99,15.571c-2.499-4.76-9.43-4.381-13.348-1.775c-1.353,0.898-2.449,2.094-3.509,3.328c0.101,0.496,0.126,1.023,0.068,1.574c-0.452,4.361-6.274,9.768-9.865,12.718c0,0,0,0,0.001,0c0.675,0.5,2.824,1.239,3.807,1.305c5.937,0.396,11.193-0.301,16.545-3.021C95.457,27.274,99.827,20.973,96.99,15.571z M88.609,19.99c-1.219,0-2.207-0.987-2.207-2.208s0.988-2.208,2.207-2.208c1.22,0,2.209,0.987,2.209,2.208S89.829,19.99,88.609,19.99z"/>
</svg>
